<?xml version="1.0" encoding="UTF-8"?>
<svg version="1.1" xmlns="http://www.w3.org/2000/svg" width="5920" height="1408">
<path d="M0 0 C207.11551668 -2.42271855 207.11551668 -2.42271855 286.76769161 -2.88989782 C307.59236661 -3.01234966 328.41702162 -3.1376138 349.2416262 -3.27155963 C351.75999376 -3.2877505 354.27836188 -3.30385278 356.79673058 -3.31986532 C396.82550414 -3.57511323 436.84913594 -4.02473682 476.87481133 -4.57783325 C518.07053749 -5.14605343 559.2634302 -5.51363913 600.46300832 -5.6348994 C606.30453661 -5.65218438 612.14605535 -5.67172246 617.98757172 -5.69263458 C619.13707384 -5.69667996 620.28657596 -5.70072534 621.47091147 -5.70489331 C639.85159044 -5.77534099 658.22341289 -6.05230777 676.60050261 -6.40992204 C695.15395188 -6.76643713 713.69878062 -6.89730269 732.25552323 -6.81008264 C742.28531125 -6.76890558 752.29160204 -6.81945813 762.31657791 -7.15232849 C798.620281 -8.31333448 828.73650829 -8.3503265 856.51185606 17.52661113 C868.76656679 29.27849115 879.71522173 42.20686273 890.24800857 55.49777334 C893.29739384 59.28589718 896.5149719 62.55613359 900.29134639 65.61237313 C903.4509588 68.1783485 906.2522272 71.13007693 909.11523438 74.01757812 C909.77654861 74.68035263 910.43786285 75.34312714 911.11921692 76.02598572 C912.54054857 77.45109348 913.96072501 78.87735418 915.37983704 80.30467224 C917.63179056 82.56950817 919.88695696 84.8311015 922.14294434 87.09191895 C927.74262673 92.70489872 933.33682943 98.32332959 938.93121338 103.94158936 C943.66914707 108.69932059 948.40916875 113.45495322 953.15193176 118.20787048 C955.36292687 120.42530078 957.57086441 122.64574414 959.77868652 124.86633301 C961.14722973 126.23851207 962.51591541 127.61054907 963.88476562 128.98242188 C964.79057121 129.89597694 964.79057121 129.89597694 965.7146759 130.82798767 C968.55863377 133.67229119 971.43835867 136.40059604 974.50720215 139.00109863 C981.2847176 145.03355695 987.58418871 151.58418871 994 158 C994 309.47 994 460.94 994 617 C665.98 617 337.96 617 0 617 C0 413.39 0 209.78 0 0 Z " fill="#525455" transform="translate(0,779)"/>
<path d="M0 0 C328.02 0 656.04 0 994 0 C994 151.47 994 302.94 994 459 C979.96008916 473.03991084 979.96008916 473.03991084 974.75799561 477.47128296 C971.68630497 480.14236235 968.84115268 483.03629805 965.9765625 485.92578125 C965.32500183 486.57880219 964.67344116 487.23182312 964.00213623 487.90463257 C962.60208514 489.3084591 961.20318925 490.71343853 959.80535889 492.11947632 C957.58701179 494.35070887 955.36544938 496.57869592 953.14306641 498.8059082 C948.42588472 503.53445954 943.71264924 508.26693201 939 513 C933.53448019 518.48920057 928.06731148 523.97673766 922.59588623 529.46005249 C920.41812903 531.64424355 918.24343039 533.83144794 916.06884766 536.01879883 C914.72052748 537.37075495 913.37206477 538.72256896 912.0234375 540.07421875 C911.42891785 540.67390472 910.83439819 541.2735907 910.22186279 541.89144897 C907.41738439 544.69627325 904.59395702 547.33058084 901.50811249 549.82267612 C897.80092789 553.05099272 894.70440472 556.6399836 891.63701051 560.46438318 C844.19201877 619.57685041 844.19201877 619.57685041 807.48700052 623.78748076 C791.40671724 625.31153207 775.20020792 624.97236115 759.08187085 624.40946998 C748.97734773 624.07065492 738.88168303 624.11621305 728.77287616 624.1660902 C710.13763208 624.24795053 691.51669222 624.04204916 672.88560677 623.66099358 C654.4906561 623.28574828 636.1016904 623.04526549 617.70293999 622.97726631 C616.55105737 622.97293571 615.39917475 622.96860512 614.2123866 622.96414329 C608.36045883 622.94282271 602.50852596 622.92383761 596.65658741 622.9057501 C555.4083809 622.77408061 514.1679245 622.35152564 472.92407227 621.75268555 C432.90396842 621.17229241 392.88601708 620.72798346 352.86254883 620.46069336 C350.33758548 620.44364294 347.81262216 620.42658855 345.28765887 620.40953022 C324.76502424 620.27159942 304.2423316 620.14293206 283.71962328 620.0165058 C189.13906594 619.42720948 94.57878553 618.16232463 0 617 C0 413.39 0 209.78 0 0 Z " fill="#BAD345" transform="translate(0,0)"/>
<path d="M0 0 C394.09465424 0 394.09465424 0 445 28 C445.60634277 28.32468262 446.21268555 28.64936523 446.83740234 28.98388672 C460.42413603 36.26469439 471.89707333 45.42283866 483 56 C483.78117187 56.71671875 484.56234375 57.4334375 485.3671875 58.171875 C496.69909514 68.89887654 504.87990139 82.23286462 512 96 C512.31420898 96.60247559 512.62841797 97.20495117 512.95214844 97.82568359 C529.59908235 130.20459186 534.59554347 167.27640462 534.39111328 203.26660156 C534.37496992 206.63126918 534.39111669 209.9947422 534.41015625 213.359375 C534.42924946 232.08163591 532.85557781 250.55258287 528.25 268.75 C527.99250977 269.78527832 527.73501953 270.82055664 527.46972656 271.88720703 C520.2416474 300.03159452 507.11701991 324.09838493 487 345 C486.14728516 345.94746094 486.14728516 345.94746094 485.27734375 346.9140625 C470.30467724 363.07382022 449.41041486 372.0322294 429 379 C429.62229492 379.18997559 430.24458984 379.37995117 430.88574219 379.57568359 C474.56694363 393.08078899 513.73072415 420.18224129 535.96582031 461.1340332 C536.99280961 463.08173034 537.99929158 465.0386917 539 467 C539.46696289 467.89138672 539.46696289 467.89138672 539.94335938 468.80078125 C562.53138769 512.24300201 563.95538807 567.28316986 558 615 C557.87641113 616.0223877 557.75282227 617.04477539 557.62548828 618.09814453 C552.56241643 658.54748585 539.6596248 698.10077205 511 728 C510.25492188 728.80824219 509.50984375 729.61648438 508.7421875 730.44921875 C468.69065717 772.54958974 405.17575073 783.32161662 350 787 C234.5 787 119 787 0 787 C0 527.29 0 267.58 0 0 Z M158 143 C158 202.73 158 262.46 158 324 C197.8475 324.12375 197.8475 324.12375 238.5 324.25 C246.86408203 324.28641602 255.22816406 324.32283203 263.84570312 324.36035156 C271.39373451 324.37373566 271.39373451 324.37373566 278.94177246 324.3817749 C282.28367911 324.3854766 285.62532731 324.4003657 288.96716309 324.42230225 C293.24870415 324.45002873 297.52987709 324.45791195 301.8114996 324.4522891 C303.37107381 324.45346238 304.9306628 324.46122131 306.49015903 324.47686052 C325.18454825 324.65541 341.5767278 320.42079163 356 308 C356.59425781 307.50113281 357.18851563 307.00226563 357.80078125 306.48828125 C376.35431997 289.55551143 382.95184424 261.94789412 384.10498047 237.80175781 C385.01263718 212.03783755 381.56985915 184.36934286 364.109375 164.16796875 C350.85159485 150.54191693 332.83189212 142.89959201 313.84985352 142.51898193 C310.94217305 142.49278939 308.0364813 142.51692506 305.12890625 142.54589844 C303.48493996 142.54712764 301.84097157 142.54658325 300.19700623 142.54443741 C295.8468499 142.54354486 291.49714557 142.56650312 287.14709473 142.59487915 C283.0453164 142.61788421 278.94364068 142.61874371 274.84179688 142.62158203 C262.89447281 142.64246107 250.94723047 142.69830613 239 142.75 C212.27 142.8325 185.54 142.915 158 143 Z M158 446 C158 511.67 158 577.34 158 645 C199.9821875 645.0928125 199.9821875 645.0928125 242.8125 645.1875 C251.6191333 645.21481201 260.4257666 645.24212402 269.49926758 645.27026367 C277.45839516 645.28030278 277.45839516 645.28030278 285.41752625 645.28633118 C288.93675013 645.28910331 292.45583545 645.3002535 295.97502136 645.31672668 C300.48762757 645.33756464 305.00003723 645.34342617 309.51268709 645.33921683 C311.15402787 645.34009479 312.79537676 645.34588753 314.43667567 645.35764539 C339.78757569 645.53056574 364.8228295 640.89869247 384 623 C398.3732026 607.58526097 405.05670316 588.49720386 408 568 C408.0942627 567.35281006 408.18852539 566.70562012 408.28564453 566.03881836 C412.01186271 537.29894413 409.26082487 506.67159635 393 482 C389.65457523 477.68538992 385.87182352 473.83942333 382 470 C381.23042969 469.19691406 380.46085937 468.39382813 379.66796875 467.56640625 C360.66706069 448.88919339 334.27645752 445.64981992 308.87524414 445.77294922 C307.19135008 445.7735636 305.5074555 445.77329199 303.82356167 445.7722187 C299.3616053 445.77177183 294.89975877 445.78326452 290.43782806 445.79743958 C286.23292235 445.80892869 282.02804177 445.80937116 277.82312012 445.81079102 C265.56956584 445.82123699 253.31603148 445.84915952 241.0625 445.875 C213.651875 445.91625 186.24125 445.9575 158 446 Z " fill="#000000" transform="translate(1188,615)"/>
<path d="M0 0 C41.91 0 83.82 0 127 0 C139.72908835 19.67222744 139.72908835 19.67222744 144.9375 27.875 C145.52466797 28.79861328 146.11183594 29.72222656 146.71679688 30.67382812 C150.97896519 37.38203046 155.22471395 44.10051722 159.46508789 50.82250977 C165.02440441 59.63140863 170.62158239 68.41615979 176.21777344 77.20166016 C179.14654813 81.80023762 182.07317691 86.40018027 185 91 C186.16665613 92.83334004 187.3333228 94.66667337 188.5 96.5 C190.83333333 100.16666667 193.16666667 103.83333333 195.5 107.5 C196.3664917 108.86161255 196.3664917 108.86161255 197.25048828 110.25073242 C198.41556948 112.08159753 199.58060864 113.9124894 200.74560547 115.7434082 C203.68618321 120.36472713 206.62752092 124.9855592 209.5703125 129.60546875 C215.55356973 139.00023229 221.52327876 148.4031591 227.46582031 157.82373047 C233.02498576 166.6321639 238.62183707 175.41655961 244.21777344 184.20166016 C247.72864692 189.71421247 251.23661503 195.22861405 254.74511719 200.74267578 C257.68587905 205.36422524 260.62736332 209.98531178 263.5703125 214.60546875 C269.55356973 224.00023229 275.52327876 233.4031591 281.46582031 242.82373047 C287.02498576 251.6321639 292.62183707 260.41655961 298.21777344 269.20166016 C301.72864692 274.71421247 305.23661503 280.22861405 308.74511719 285.74267578 C311.68587905 290.36422524 314.62736332 294.98531178 317.5703125 299.60546875 C323.55356973 309.00023229 329.52327876 318.4031591 335.46582031 327.82373047 C341.02498576 336.6321639 346.62183707 345.41655961 352.21777344 354.20166016 C355.72864692 359.71421247 359.23661503 365.22861405 362.74511719 370.74267578 C365.68587905 375.36422524 368.62736332 379.98531178 371.5703125 384.60546875 C377.55356973 394.00023229 383.52327876 403.4031591 389.46582031 412.82373047 C395.02498576 421.6321639 400.62183707 430.41655961 406.21777344 439.20166016 C409.14654813 443.80023762 412.07317691 448.40018027 415 453 C416.16665613 454.83334004 417.3333228 456.66667337 418.5 458.5 C425.5 469.5 425.5 469.5 427.25244141 472.25390625 C428.41088568 474.07427244 429.56941336 475.89458556 430.72802734 477.71484375 C433.77120755 482.49612661 436.81263107 487.27851535 439.8515625 492.0625 C440.48320312 493.05636719 441.11484375 494.05023437 441.765625 495.07421875 C442.97189164 496.97231479 444.17765144 498.87073305 445.3828125 500.76953125 C446.20265625 502.05923828 446.20265625 502.05923828 447.0390625 503.375 C447.51553223 504.12523437 447.99200195 504.87546875 448.48291016 505.6484375 C450.29164767 508.45206797 452.14927248 511.22390872 454 514 C454.33 344.38 454.66 174.76 455 0 C507.14 0 559.28 0 613 0 C613 259.71 613 519.42 613 787 C571.09 787 529.18 787 486 787 C481.61686287 780.73837553 477.34948029 774.53266196 473.3125 768.0625 C472.26437494 766.3931965 471.21619636 764.7239266 470.16796875 763.0546875 C469.64122559 762.21389648 469.11448242 761.37310547 468.57177734 760.50683594 C466.09813643 756.56161305 463.61190316 752.62437168 461.125 748.6875 C460.63555908 747.91220947 460.14611816 747.13691895 459.6418457 746.33813477 C455.7750078 740.21663195 451.88966916 734.10701478 448 728 C441.15128137 717.2470994 434.34153666 706.46994669 427.54101562 695.68652344 C421.71255388 686.44580472 415.86915989 677.2149344 410 668 C403.15128137 657.2470994 396.34153666 646.46994669 389.54101562 635.68652344 C383.71255388 626.44580472 377.86915989 617.2149344 372 608 C365.15128137 597.2470994 358.34153666 586.46994669 351.54101562 575.68652344 C345.71255388 566.44580472 339.86915989 557.2149344 334 548 C327.15128137 537.2470994 320.34153666 526.46994669 313.54101562 515.68652344 C307.71255388 506.44580472 301.86915989 497.2149344 296 488 C289.15128137 477.2470994 282.34153666 466.46994669 275.54101562 455.68652344 C269.71255388 446.44580472 263.86915989 437.2149344 258 428 C251.15128137 417.2470994 244.34153666 406.46994669 237.54101562 395.68652344 C231.71255388 386.44580472 225.86915989 377.2149344 220 368 C213.15128137 357.2470994 206.34153666 346.46994669 199.54101562 335.68652344 C193.71255373 326.44580448 187.86911241 317.21496482 182 308 C177.42688556 300.81919156 172.86132251 293.63372599 168.3125 286.4375 C167.57290039 285.26864258 167.57290039 285.26864258 166.81835938 284.07617188 C166.35880859 283.34849609 165.89925781 282.62082031 165.42578125 281.87109375 C165.02786377 281.24130615 164.62994629 280.61151855 164.2199707 279.96264648 C162.78726236 277.65775507 161.39628287 275.32713811 160 273 C159.67 442.62 159.34 612.24 159 787 C106.53 787 54.06 787 0 787 C0 527.29 0 267.58 0 0 Z " fill="#000000" transform="translate(3860,615)"/>
<path d="M0 0 C0.66384453 0.00026688 1.32768906 0.00053375 2.01165009 0.00080872 C22.35020029 0.0110649 42.55715753 0.19206002 62.8125 2.1875 C63.47417175 2.25066406 64.13584351 2.31382812 64.81756592 2.37890625 C114.56439843 7.1337647 172.09144554 16.0513721 212.8125 47.1875 C213.34810547 47.58759277 213.88371094 47.98768555 214.43554688 48.39990234 C279.95313315 97.42754494 304.38944807 177.3853719 315.8125 255.1875 C318.38847287 273.20279742 320.09148499 291.29747353 321.5 309.4375 C321.56093842 310.21927612 321.62187683 311.00105225 321.68466187 311.80651855 C323.25896651 332.30362382 323.97761954 352.7724639 324.015625 373.328125 C324.01845238 374.39292839 324.02127975 375.45773178 324.02419281 376.55480194 C324.03905639 382.21459686 324.04836078 387.87436725 324.05273438 393.53417969 C324.05707069 398.08634672 324.07079124 402.63831903 324.09375 407.19042969 C324.21549558 431.86696118 323.95333401 456.44551367 322.44140625 481.08203125 C322.37999199 482.087145 322.31857773 483.09225876 322.25530243 484.12783051 C316.86103747 570.29128864 302.51513718 664.3510896 241.8125 730.1875 C241.32845703 730.71682129 240.84441406 731.24614258 240.34570312 731.79150391 C228.13214396 745.00610581 213.54796256 755.55193142 197.8125 764.1875 C197.21743652 764.52056152 196.62237305 764.85362305 196.00927734 765.19677734 C162.32620238 783.85104033 122.46281193 791.61347831 84.625 796.4375 C83.45380615 796.58856201 82.2826123 796.73962402 81.07592773 796.89526367 C76.99214619 797.38373056 72.90732424 797.80410232 68.8125 798.1875 C67.89134399 798.27470306 66.97018799 798.36190613 66.02111816 798.45175171 C46.21170194 800.25670403 26.48259319 800.53208088 6.60791016 800.50317383 C3.17873947 800.49856408 -0.2500746 800.50540587 -3.67919922 800.52368164 C-85.18870138 800.95350315 -178.32169686 792.25931716 -239.1875 732.1875 C-253.42039724 717.9594128 -264.24355278 701.59860818 -274.1875 684.1875 C-274.75162598 683.21611084 -274.75162598 683.21611084 -275.32714844 682.22509766 C-320.65507179 603.80566218 -323.61393585 500.23862117 -323.44824219 408.68359375 C-323.43684874 403.2725193 -323.44363702 397.86164168 -323.45511913 392.45057392 C-323.51496235 359.21053615 -322.70841539 326.09334814 -319.375 293 C-319.29101959 292.14559326 -319.20703918 291.29118652 -319.12051392 290.41088867 C-311.59475209 214.2287639 -295.15935891 135.19117573 -243.1875 76.1875 C-242.74873535 75.68557129 -242.3099707 75.18364258 -241.85791016 74.66650391 C-194.30069309 20.42960301 -116.92737557 5.91398921 -48.1875 1.1875 C-47.51860748 1.14017731 -46.84971497 1.09285461 -46.16055298 1.0440979 C-30.7862316 -0.0120067 -15.40447078 -0.01288498 0 0 Z M-113.1875 171.1875 C-114.074375 171.98542969 -114.96125 172.78335938 -115.875 173.60546875 C-153.43737215 208.92453256 -158.90179982 268.79032984 -162.875 317.125 C-162.93593842 317.86112518 -162.99687683 318.59725037 -163.05966187 319.35568237 C-163.48899724 324.62979381 -163.85705949 329.90630518 -164.1875 335.1875 C-164.2369577 335.95862122 -164.28641541 336.72974243 -164.33737183 337.52423096 C-165.51607714 356.78499645 -165.37488731 376.08952267 -165.37280273 395.37792969 C-165.37272207 399.22237921 -165.37958222 403.06670804 -165.39331055 406.91113281 C-165.50796104 439.57809088 -165.07091682 472.31714546 -161.375 504.8125 C-161.24952789 505.95682495 -161.24952789 505.95682495 -161.121521 507.12426758 C-156.36868099 550.29414877 -148.33977076 601.36550821 -113.1875 631.1875 C-108.72047162 634.52389653 -104.00793119 637.39493528 -99.1875 640.1875 C-98.36894531 640.66832031 -97.55039063 641.14914062 -96.70703125 641.64453125 C-84.83000029 648.08388538 -71.5325875 651.34809926 -58.375 653.9375 C-56.88516602 654.23527344 -56.88516602 654.23527344 -55.36523438 654.5390625 C-36.88635463 657.96934405 -18.30924342 658.56498097 0.4375 658.5 C1.53301178 658.49817719 2.62852356 658.49635437 3.75723267 658.49447632 C20.26752927 658.44829472 36.51133978 658.06188603 52.8125 655.1875 C53.82183594 655.01057617 54.83117188 654.83365234 55.87109375 654.65136719 C68.33827384 652.37567448 80.18403355 649.24335498 91.8125 644.1875 C93.40771484 643.49527344 93.40771484 643.49527344 95.03515625 642.7890625 C121.78598481 630.29383677 136.59473016 606.77358028 146.78515625 580.15625 C157.57369834 550.44135692 160.9338175 518.50557353 163.5 487.1875 C163.59140762 486.0769072 163.59140762 486.0769072 163.68466187 484.94387817 C165.26580403 465.40957801 165.97251535 445.88071379 165.98046875 426.28515625 C165.98370316 424.34736612 165.98706861 422.4095762 165.99055481 420.4717865 C165.99648105 416.43569375 165.99840183 412.39962217 165.99780273 408.36352539 C165.99772208 404.31823192 166.00457993 400.27305315 166.01831055 396.2277832 C166.12989013 362.78954983 165.66050604 329.33596262 162 296.0625 C161.91601959 295.2746109 161.83203918 294.4867218 161.74551392 293.67495728 C157.2417476 251.66567972 150.16180742 205.13603502 118.8125 174.1875 C117.575 172.95193359 117.575 172.95193359 116.3125 171.69140625 C87.37737898 144.1937672 39.12211383 141.94157212 1.375 142 C0.27640152 142.00090637 0.27640152 142.00090637 -0.84439087 142.00183105 C-37.42937022 142.08297817 -85.01648202 144.43481452 -113.1875 171.1875 Z " fill="#000000" transform="translate(3415.1875,607.8125)"/>
<path d="M0 0 C0.8348291 0.00188324 1.6696582 0.00376648 2.52978516 0.00570679 C9.33255249 0.02304637 16.13494959 0.06915241 22.9375 0.125 C24.01086609 0.13360046 25.08423218 0.14220093 26.19012451 0.15106201 C117.41656473 0.92033507 208.62650374 4.96120624 312.82421875 12.328125 C313.73210144 12.39457718 314.63998413 12.46102936 315.57537842 12.52949524 C316.84650482 12.62559334 316.84650482 12.62559334 318.14331055 12.72363281 C319.21599434 12.80426971 319.21599434 12.80426971 320.31034851 12.88653564 C324.1920316 13.23887279 328.06369804 13.69457756 331.9375 14.125 C331.9375 58.015 331.9375 101.905 331.9375 147.125 C322.71611084 147.13958252 313.49472168 147.15416504 303.99389648 147.16918945 C274.45373977 147.21799719 244.91363049 147.28142023 215.37352296 147.35398628 C210.78132352 147.36525379 206.18912378 147.37639235 201.59692383 147.38745117 C200.22564771 147.3907567 200.22564771 147.3907567 198.82666904 147.394129 C184.04463208 147.42945463 169.26259515 147.45434545 154.48053169 147.47534702 C139.30096902 147.49714685 124.1214609 147.53023683 108.94194466 147.57370156 C99.58326785 147.60014636 90.22465895 147.61789448 80.86594666 147.62434604 C74.43921901 147.62962194 68.01257663 147.64591235 61.58589476 147.67066566 C57.88383286 147.68460561 54.18192335 147.69387983 50.4798336 147.69000816 C27.55338327 147.67103423 3.95390879 147.65446092 -14.0625 164.125 C-28.39315057 180.04794508 -30.1550808 199.54943169 -30.26782227 220.0222168 C-30.27772186 221.15523727 -30.28762146 222.28825775 -30.29782104 223.45561218 C-30.32914553 227.16179388 -30.35407735 230.86798834 -30.37890625 234.57421875 C-30.39950093 237.159249 -30.42049802 239.74427607 -30.44187927 242.32929993 C-30.49123754 248.41337577 -30.53656892 254.49746913 -30.57990164 260.58159047 C-30.62951318 267.51523729 -30.68434156 274.44883989 -30.73958123 281.38244379 C-30.85297467 295.6299209 -30.95990429 309.87744124 -31.0625 324.125 C-29.40030709 324.15792019 -29.40030709 324.15792019 -27.70453453 324.19150543 C5.56777012 324.85543539 38.83395436 325.70175797 72.10047865 326.60696602 C76.2686029 326.72036959 80.43673914 326.83332812 84.60487747 326.94621277 C96.22532104 327.26099366 107.8457524 327.57621572 119.46613121 327.89337921 C120.19842496 327.91336581 120.93071871 327.9333524 121.68520317 327.95394465 C123.16822792 327.99442272 124.65125265 328.03490098 126.13427739 328.07537943 C127.237876 328.10550069 127.237876 328.10550069 128.36376953 328.13623047 C129.10042755 328.15633696 129.83708556 328.17644345 130.59606655 328.19715923 C142.64052813 328.52581034 154.68508213 328.85093942 166.7296782 329.17462057 C179.19645412 329.50969521 191.66315088 329.84759339 204.12977278 330.18835115 C211.09058073 330.37855174 218.05141599 330.56757511 225.01234055 330.75346375 C231.5218404 330.92731283 238.0312265 331.10503268 244.54055023 331.2853756 C246.92335867 331.35077818 249.30620277 331.41489636 251.6890831 331.47762489 C254.94373833 331.56350173 258.19823229 331.65403994 261.45272827 331.74572754 C262.39053584 331.76936922 263.3283434 331.79301089 264.29456937 331.81736898 C265.17525323 331.8431271 266.05593709 331.86888522 266.96330833 331.89542389 C267.71208067 331.91576643 268.46085301 331.93610898 269.23231542 331.95706797 C273.1458845 332.20001391 277.04037989 332.69198665 280.9375 333.125 C280.9375 374.375 280.9375 415.625 280.9375 458.125 C257.96109031 459.27382048 257.96109031 459.27382048 249.01121521 459.51100159 C247.96934856 459.54044088 246.92748191 459.56988017 245.85404354 459.60021156 C242.44628921 459.69595443 239.03845789 459.78856222 235.63061523 459.88110352 C233.15246087 459.95003785 230.67431159 460.01915537 228.19616699 460.08843994 C222.21011411 460.25522378 216.22400656 460.41988402 210.23786204 460.58333511 C205.35589978 460.7166431 200.47395747 460.85065997 195.59202766 460.98515129 C181.66580105 461.36871079 167.73952326 461.75033358 153.81317674 462.12951494 C153.06602227 462.14985851 152.31886779 462.17020207 151.54907227 462.19116211 C150.80097516 462.21153091 150.05287806 462.23189971 149.28211135 462.25288575 C137.19834946 462.58201682 125.11472192 462.91582448 113.03114783 463.25177336 C100.54041769 463.59898454 88.04959093 463.94252385 75.55866009 464.28243965 C68.57974166 464.47243038 61.60086937 464.66383629 54.62209892 464.8591938 C26.05711234 465.65786672 -2.48445468 466.42288927 -31.0625 466.125 C-30.97811344 480.41720193 -30.88268518 494.70929495 -30.77497292 509.00134087 C-30.72525862 515.63938544 -30.67892858 522.27740414 -30.640625 528.91552734 C-30.6034554 535.33470432 -30.5570143 541.75375626 -30.50443649 548.17282486 C-30.48605931 550.60849922 -30.47089154 553.04420021 -30.45915604 555.47991562 C-30.59900885 594.64572599 -30.59900885 594.64572599 -12.24609375 628.12890625 C2.12459915 641.26562194 21.57958019 643.43491001 40.20004272 643.4034729 C41.45748814 643.4092653 42.71493356 643.4150577 44.01048338 643.42102563 C47.45634938 643.43664158 50.90213347 643.44024599 54.34803057 643.44167423 C58.08063043 643.44540092 61.81318701 643.46057222 65.54576111 643.47428894 C71.99799511 643.49646388 78.45021352 643.51153559 84.90247726 643.52165604 C94.23113454 643.53629861 103.55973742 643.56185073 112.8883626 643.58998732 C128.02679758 643.63535446 143.16524044 643.67201072 158.30371094 643.703125 C173.00131615 643.73335196 187.69890204 643.76774359 202.39648438 643.80761719 C203.31307083 643.8100987 204.22965729 643.8125802 205.1740191 643.81513691 C212.34330514 643.8345789 219.51259052 643.85426089 226.68187571 643.87401867 C261.76706027 643.97064831 296.85226158 644.04636139 331.9375 644.125 C331.9375 688.015 331.9375 731.905 331.9375 777.125 C274.45180767 782.68813152 217.25709977 787.45628455 159.61877441 789.96356201 C156.05909952 790.1196674 152.49976906 790.28224731 148.94042969 790.44580078 C111.42456638 792.1362602 73.90695428 792.35925195 36.35808182 792.42871475 C32.53483035 792.43742069 28.7116282 792.45127648 24.88839722 792.46640015 C18.77133075 792.48922632 12.65445334 792.495044 6.5373497 792.48870468 C4.2731464 792.48842846 2.00893589 792.49296533 -0.25524521 792.50299454 C-48.73886804 792.69680368 -107.52759714 782.38820683 -145.0625 749.125 C-145.7534375 748.56425781 -146.444375 748.00351563 -147.15625 747.42578125 C-175.29305052 724.21292082 -184.6720956 683.72906909 -188.0625 649.125 C-189.03366567 637.29830037 -189.20731314 625.53116044 -189.19621277 613.67126465 C-189.19808506 611.75240297 -189.20038742 609.83354167 -189.20307809 607.91468096 C-189.20915083 602.6840275 -189.20906788 597.45339014 -189.20788372 592.22273397 C-189.20767855 586.56469576 -189.21320944 580.90666255 -189.21794128 575.24862671 C-189.22622363 564.17891747 -189.22899503 553.10921356 -189.22955366 542.03950149 C-189.23002999 533.03455805 -189.23209057 524.02961635 -189.23525429 515.02467346 C-189.24262433 493.60905698 -189.24877982 472.19344221 -189.24825573 450.7778244 C-189.24824015 450.09407302 -189.24822457 449.41032164 -189.24820852 448.70585052 C-189.24812542 445.24094288 -189.24802638 441.77603524 -189.24792381 438.3111276 C-189.24790387 437.62308389 -189.24788392 436.93504018 -189.24786337 436.22614666 C-189.24782294 434.83475604 -189.24778114 433.44336543 -189.24773798 432.05197481 C-189.24712565 410.41908325 -189.25462669 388.78620738 -189.26831055 367.15332031 C-189.2837074 342.80279632 -189.29226195 318.45228526 -189.29134732 294.10175562 C-189.29101627 281.22608889 -189.29372323 268.35043987 -189.30452538 255.47477722 C-189.31366559 244.51041003 -189.31577687 233.54606856 -189.30901595 222.58169919 C-189.30576839 216.9969619 -189.30562966 211.41227385 -189.3143692 205.82754135 C-189.39499744 150.75589193 -187.31693942 94.25509431 -147.0625 52.125 C-146.10730469 51.05765625 -146.10730469 51.05765625 -145.1328125 49.96875 C-119.74419957 22.7031579 -81.2696034 8.79788026 -45.375 2.875 C-44.39047852 2.71161133 -43.40595703 2.54822266 -42.39160156 2.37988281 C-28.32191358 0.20711901 -14.20247913 -0.05012425 0 0 Z " fill="#000000" transform="translate(2043.0625,614.875)"/>
<path d="M0 0 C195.03 0 390.06 0 591 0 C591 47.19 591 94.38 591 143 C519.39 143 447.78 143 374 143 C374 355.52 374 568.04 374 787 C321.86 787 269.72 787 216 787 C216 574.48 216 361.96 216 143 C144.72 143 73.44 143 0 143 C0 95.81 0 48.62 0 0 Z " fill="#000000" transform="translate(2437,615)"/>
<path d="M0 0 C220.53356282 0 220.53356282 0 241 5.75 C241.93875977 6.00531494 242.87751953 6.26062988 243.84472656 6.52368164 C269.94454396 13.90466007 292.34039918 29.21117828 306 53 C306.76957031 54.31677734 306.76957031 54.31677734 307.5546875 55.66015625 C324.28279899 86.47281757 325.80629515 129.07924599 316.55859375 162.35546875 C310.1018621 184.00678445 298.76773589 201.28494363 279 213 C273.83916305 215.72677057 268.5394268 218.1535244 263 220 C263.71542969 220.27972656 264.43085938 220.55945313 265.16796875 220.84765625 C292.67759743 231.91556636 314.27647536 249.97636112 326.24609375 277.5 C333.40638881 295.11579901 335.40081396 313.70821435 335.3125 332.5625 C335.31100952 333.35103363 335.30951904 334.13956726 335.3079834 334.95199585 C335.26545954 347.49288518 334.6472159 359.70188812 332 372 C331.7831958 373.02311279 331.7831958 373.02311279 331.56201172 374.06689453 C325.8566471 399.94005965 312.56619914 422.52544421 289.9375 437.0625 C211.82767114 483.32964602 51.28908194 458 0 458 C0 306.86 0 155.72 0 0 Z M108 96 C108 125.04 108 154.08 108 184 C121.65375 184.0825 135.3075 184.165 149.375 184.25 C153.66935059 184.28641602 157.96370117 184.32283203 162.38818359 184.36035156 C166.27326328 184.373738 166.27326328 184.373738 170.15835571 184.3817749 C171.87462525 184.38787476 173.59087879 184.4018542 175.30703735 184.42230225 C187.29729321 184.55789326 198.17117961 184.5793375 207.41015625 175.796875 C217.22983696 164.69846437 219.99352039 149.69290974 219.3828125 135.25 C218.54330012 123.78194408 215.80175209 112.26149072 207.08203125 104.234375 C198.46259299 97.36549964 189.76869486 95.83204188 178.95336914 95.88647461 C178.16946273 95.88635407 177.38555632 95.88623354 176.57789516 95.88610935 C174.06361906 95.88685024 171.54941894 95.89444057 169.03515625 95.90234375 C167.47359248 95.90381573 165.91202823 95.90483486 164.35046387 95.90539551 C158.58780168 95.91061876 152.82515008 95.92458003 147.0625 95.9375 C134.171875 95.958125 121.28125 95.97875 108 96 Z M108 266 C108 297.68 108 329.36 108 362 C121.9425 362.04125 135.885 362.0825 150.25 362.125 C156.82083496 362.15231201 156.82083496 362.15231201 163.52441406 362.18017578 C167.49728237 362.18687017 167.49728237 362.18687017 171.47015381 362.19088745 C173.22130351 362.19393165 174.97244938 362.20090891 176.72357178 362.21115112 C200.12809437 362.52553623 200.12809437 362.52553623 220.390625 351.88671875 C232.01202402 339.42599647 233.72457788 324.15135517 233.28515625 307.72265625 C232.83156124 298.17438645 230.3836077 289.91968736 225 282 C224.54238281 281.31164062 224.08476562 280.62328125 223.61328125 279.9140625 C217.95536698 272.47468908 208.21199604 267.36633063 199 266 C196.02564462 265.86399281 193.05585271 265.87363919 190.07885742 265.88647461 C189.17624585 265.88635407 188.27363428 265.88623354 187.34367085 265.88610935 C184.43091148 265.88685389 181.51821663 265.89446124 178.60546875 265.90234375 C176.80358918 265.90381459 175.00170918 265.90483443 173.1998291 265.90539551 C166.52904621 265.91063193 159.85827246 265.92459318 153.1875 265.9375 C138.275625 265.958125 123.36375 265.97875 108 266 Z " fill="#000000" transform="translate(3457,4)"/>
<path d="M0 0 C28.38 0 56.76 0 86 0 C90.95 7.92 95.9 15.84 101 24 C106.32913993 32.38784949 106.32913993 32.38784949 111.66796875 40.76953125 C114.79319477 45.6705563 117.89971167 50.58317274 121 55.5 C125.31643649 62.34415092 129.65278494 69.17535895 134 76 C139.86637613 85.21045128 145.70673033 94.43699028 151.53222656 103.67333984 C154.01983357 107.61660245 156.51006414 111.55820768 159 115.5 C160.00001224 117.0833256 161.00001225 118.66665893 162 120.25 C162.495 121.03375 162.99 121.8175 163.5 122.625 C168 129.75 168 129.75 169.49951172 132.12426758 C170.50109035 133.71007325 171.50271808 135.29584791 172.50439453 136.8815918 C174.98064184 140.80184757 177.45607701 144.72261107 179.9296875 148.64453125 C185.26883255 157.10764415 190.62440199 165.55998748 196 174 C201.86632526 183.21048386 207.70673018 192.43699003 213.53222656 201.67333984 C216.01983357 205.61660245 218.51006414 209.55820768 221 213.5 C222.00001224 215.0833256 223.00001225 216.66665893 224 218.25 C224.495 219.03375 224.99 219.8175 225.5 220.625 C230 227.75000001 230 227.75000001 231.5012207 230.12695312 C232.49712718 231.70379152 233.49305801 233.28061454 234.48901367 234.85742188 C237.05184869 238.91499927 239.6142073 242.97287634 242.17578125 247.03125 C242.9637207 248.27938477 242.9637207 248.27938477 243.76757812 249.55273438 C244.75471854 251.11643468 245.74171234 252.68022755 246.72851562 254.24414062 C250.47114929 260.17217675 254.23608501 266.08527645 258 272 C258.33 182.24 258.66 92.48 259 0 C294.64 0 330.28 0 367 0 C367 151.14 367 302.28 367 458 C338.62 458 310.24 458 281 458 C276.65885554 451.79836505 272.43194815 445.65904444 268.4375 439.25 C267.39493549 437.58828798 266.3519492 435.92684052 265.30859375 434.265625 C264.76960449 433.40646484 264.23061523 432.54730469 263.67529297 431.66210938 C260.80199657 427.09632331 257.89993874 422.54889221 255 418 C250.16198136 410.40561259 245.34256843 402.79984781 240.5390625 395.18359375 C236.70797641 389.11263987 232.85678831 383.05465239 229 377 C224.1622837 369.40541918 219.34256929 361.79984917 214.5390625 354.18359375 C210.70797641 348.11263987 206.85678831 342.05465239 203 336 C198.1622837 328.40541918 193.34256929 320.79984917 188.5390625 313.18359375 C184.70797641 307.11263987 180.85678831 301.05465239 177 295 C172.1622837 287.40541918 167.34256929 279.79984917 162.5390625 272.18359375 C158.70797641 266.11263987 154.85678831 260.05465239 151 254 C146.16370265 246.40764674 141.34499634 238.80456091 136.54345703 231.19018555 C132.13288554 224.20008028 127.69455189 217.22776951 123.24609375 210.26171875 C118.11014856 202.20678312 113.06393801 194.10230081 108 186 C107.67 275.76 107.34 365.52 107 458 C71.69 458 36.38 458 0 458 C0 306.86 0 155.72 0 0 Z " fill="#000000" transform="translate(4276,4)"/>
<path d="M0 0 C28.38 0 56.76 0 86 0 C93.91635613 12.17900943 101.79572184 24.35891517 109.52490234 36.65429688 C111.97044283 40.54320005 114.42237436 44.42806253 116.875 48.3125 C117.36492432 49.08859619 117.85484863 49.86469238 118.35961914 50.66430664 C122.22609209 56.78491766 126.11084047 62.89378537 130 69 C135.86632526 78.21048386 141.70673018 87.43699003 147.53222656 96.67333984 C150.01983357 100.61660245 152.51006414 104.55820768 155 108.5 C156.00001224 110.0833256 157.00001225 111.66665893 158 113.25 C158.495 114.03375 158.99 114.8175 159.5 115.625 C164 122.75 164 122.75 165.49951172 125.12426758 C166.50109035 126.71007325 167.50271808 128.29584791 168.50439453 129.8815918 C170.98064184 133.80184757 173.45607701 137.72261107 175.9296875 141.64453125 C181.26883255 150.10764415 186.62440199 158.55998748 192 167 C197.86632526 176.21048386 203.70673018 185.43699003 209.53222656 194.67333984 C212.01983357 198.61660245 214.51006414 202.55820768 217 206.5 C218.00001224 208.0833256 219.00001225 209.66665893 220 211.25 C220.495 212.03375 220.99 212.8175 221.5 213.625 C234 233.41666667 246.5 253.20833333 259 273 C259.33 182.91 259.66 92.82 260 0 C295.31 0 330.62 0 367 0 C367 151.14 367 302.28 367 458 C338.62 458 310.24 458 281 458 C268.4859104 438.66004335 268.4859104 438.66004335 264.1875 431.8125 C259.81114456 424.86249977 255.41324361 417.9266345 251 411 C246.1621969 403.4054747 241.34256905 395.79984878 236.5390625 388.18359375 C232.70797641 382.11263987 228.85678831 376.05465239 225 370 C220.1622837 362.40541918 215.34256929 354.79984917 210.5390625 347.18359375 C206.70797641 341.11263987 202.85678831 335.05465239 199 329 C194.1622837 321.40541918 189.34256929 313.79984917 184.5390625 306.18359375 C180.70797641 300.11263987 176.85678831 294.05465239 173 288 C168.1622837 280.40541918 163.34256929 272.79984917 158.5390625 265.18359375 C154.70797641 259.11263987 150.85678831 253.05465239 147 247 C142.16654071 239.41210212 137.34984143 231.8139896 132.55224609 224.20336914 C129.82976584 219.88756253 127.09654897 215.57887703 124.3515625 211.27734375 C123.42150391 209.81941406 123.42150391 209.81941406 122.47265625 208.33203125 C121.28113 206.46539075 120.08850377 204.59945172 118.89453125 202.734375 C118.34410156 201.87199219 117.79367187 201.00960937 117.2265625 200.12109375 C116.50847412 198.99852173 116.50847412 198.99852173 115.77587891 197.85327148 C113.12988656 193.60200499 110.57631109 189.29385182 108 185 C107.67 275.09 107.34 365.18 107 458 C71.69 458 36.38 458 0 458 C0 306.86 0 155.72 0 0 Z " fill="#000000" transform="translate(5553,4)"/>
<path d="M0 0 C3.87137128 0.0160911 7.74169687 0.00003129 11.61303711 -0.01904297 C36.99172485 -0.040924 61.76529619 2.34973757 86.43920898 8.39111328 C87.22859863 8.58431152 88.01798828 8.77750977 88.83129883 8.9765625 C121.17160226 17.14430065 147.18862818 35.45559554 164.75341797 63.98681641 C211.06554627 141.79046277 206.89544395 264.61521654 185.85742188 350.40307617 C176.94524484 385.11177429 159.85911507 420.79926471 128.43920898 440.39111328 C127.7340918 440.87580078 127.02897461 441.36048828 126.30249023 441.85986328 C74.48802912 475.86027756 -11.14508632 471.78090239 -69.27856445 459.83251953 C-91.38457696 455.05016696 -113.37845197 447.55200067 -130.56079102 432.39111328 C-131.78862305 431.36050781 -131.78862305 431.36050781 -133.04125977 430.30908203 C-171.54440872 397.17846549 -181.49613036 343.35034886 -186.56079102 295.39111328 C-186.68083496 294.26705078 -186.80087891 293.14298828 -186.92456055 291.98486328 C-190.8469582 252.7024308 -190.75222944 210.63873002 -186.56079102 171.39111328 C-186.42656738 170.12009766 -186.29234375 168.84908203 -186.15405273 167.53955078 C-181.21465522 121.92251626 -171.00178717 75.66524792 -138.56079102 41.39111328 C-137.82860352 40.60607422 -137.09641602 39.82103516 -136.34204102 39.01220703 C-102.75145861 4.06144259 -45.49753342 -0.22380069 0 0 Z M-56.94750977 112.65673828 C-83.60801287 141.31839295 -80.93330459 191.63863192 -80.87646484 228.11499023 C-80.87184667 231.32834929 -80.87872498 234.54132858 -80.89697266 237.75463867 C-82.55966191 299.71084741 -82.55966191 299.71084741 -56.56079102 353.39111328 C-39.32113238 367.60347511 -18.18509534 369.62457341 3.31420898 369.64111328 C4.49072525 369.6421254 4.49072525 369.6421254 5.69100952 369.64315796 C27.41601417 369.61342166 48.61665593 367.64906352 65.54858398 352.50439453 C81.57099217 336.20252573 85.16047742 311.12199166 87.43920898 289.39111328 C87.54362305 288.40062988 87.64803711 287.41014648 87.75561523 286.38964844 C92.64240936 236.74074802 99.85882368 159.71144163 69.56420898 116.73095703 C58.14470121 102.94005954 40.36818371 98.55213555 23.25561523 96.82080078 C-2.44325649 94.65443504 -36.66258708 93.87260939 -56.94750977 112.65673828 Z " fill="#000000" transform="translate(1742.560791015625,-0.39111328125)"/>
<path d="M0 0 C1.42020664 0.00221982 2.84041335 0.00439646 4.26062012 0.00653076 C25.14815084 0.05003371 45.84096632 0.37584106 66.5625 3.3125 C67.23325562 3.40724609 67.90401123 3.50199219 68.59509277 3.59960938 C90.27787659 6.6976923 111.63717273 11.33595202 132.96875 16.26171875 C133.67575043 16.42406509 134.38275085 16.58641144 135.11117554 16.75367737 C140.98093567 18.12479364 146.73423071 19.72297201 152.5625 21.3125 C152.5625 49.0325 152.5625 76.7525 152.5625 105.3125 C140.0225 103.9925 127.4825 102.6725 114.5625 101.3125 C107.31100002 100.7003297 100.07174144 100.10485699 92.8125 99.625 C91.93993561 99.5655722 91.06737122 99.50614441 90.16836548 99.44491577 C84.30102509 99.04565517 78.4325772 98.66916624 72.5625 98.3125 C71.35835449 98.23902344 70.15420898 98.16554688 68.91357422 98.08984375 C54.77537527 97.27837026 40.61831921 97.19786408 26.46035767 97.13827515 C24.47724998 97.12956615 22.49415201 97.11812358 20.51107788 97.10366821 C-2.60379216 96.95474964 -29.3005681 97.75335444 -47.3125 114.375 C-73.6553212 143.36189619 -70.82056144 193.23199247 -70.69824219 229.54199219 C-70.68750139 233.31201236 -70.6982373 237.08155631 -70.7109375 240.8515625 C-71.91709436 300.71907527 -71.91709436 300.71907527 -47.10546875 353.0546875 C-33.83254752 364.28711571 -16.97544907 365.87520186 -0.25 365.6875 C0.48550079 365.68317963 1.22100159 365.67885925 1.97879028 365.67440796 C25.70844242 365.51249076 48.06041727 361.66473754 71.5625 357.3125 C71.5625 333.5525 71.5625 309.7925 71.5625 285.3125 C47.4725 285.3125 23.3825 285.3125 -1.4375 285.3125 C-1.4375 257.2625 -1.4375 229.2125 -1.4375 200.3125 C12.37318797 198.01071867 12.37318797 198.01071867 19.34375 197.49609375 C20.12278687 197.43470718 20.90182373 197.37332062 21.70446777 197.31007385 C23.33761571 197.18248544 24.9709619 197.05741041 26.60449219 196.93481445 C29.03111451 196.75235983 31.45695315 196.56144637 33.8828125 196.36914062 C52.13252362 194.94568986 70.31959749 194.15546797 88.625 194.1796875 C90.47664401 194.17901048 92.32828793 194.17803719 94.17993164 194.17678833 C98.02523663 194.17533002 101.8705181 194.17740483 105.71582031 194.18212891 C110.58293024 194.187825 115.44998498 194.18453584 120.3170929 194.17855644 C124.1300903 194.17489978 127.94307516 194.17611253 131.756073 194.17868423 C133.54816698 194.17933948 135.3402622 194.17857577 137.13235474 194.17620468 C138.40210648 194.17489233 138.40210648 194.17489233 139.69750977 194.17355347 C140.4294606 194.17233427 141.16141144 194.17111507 141.9155426 194.16985893 C152.87355262 194.22171319 163.57029576 194.76288979 174.5625 195.3125 C174.5625 283.4225 174.5625 371.5325 174.5625 462.3125 C147.5025 462.3125 120.4425 462.3125 92.5625 462.3125 C88.2725 452.7425 83.9825 443.1725 79.5625 433.3125 C74.97124726 435.6274589 74.97124726 435.6274589 70.38256836 437.94750977 C68.11678384 439.08502364 65.84085593 440.20036113 63.5625 441.3125 C61.91193604 442.12400513 61.91193604 442.12400513 60.22802734 442.9519043 C51.1345459 447.35426345 41.91075808 450.86617376 32.3125 454 C31.59360596 454.23717743 30.87471191 454.47435486 30.1340332 454.71871948 C19.10085715 458.34767553 8.09594664 461.69788288 -3.4375 463.3125 C-4.65268311 463.48402588 -5.86786621 463.65555176 -7.11987305 463.83227539 C-17.5165153 465.21850459 -27.76826794 465.67730238 -38.25 465.625 C-39.03431396 465.62284485 -39.81862793 465.6206897 -40.62670898 465.61846924 C-52.76184217 465.5651368 -64.58404897 465.1456262 -76.4375 462.3125 C-77.25524902 462.11914062 -78.07299805 461.92578125 -78.91552734 461.7265625 C-107.49875183 454.67461905 -130.14243013 438.51084783 -145.61425781 413.40283203 C-186.79285485 343.8985647 -184.73359912 242.08273243 -167.72607422 113.40673828 C-158.24062928 76.49915755 -139.48096713 42.92055328 -106.4375 22.3125 C-105.32632813 21.61769531 -104.21515625 20.92289063 -103.0703125 20.20703125 C-86.35127737 10.33800882 -66.52389081 5.13469728 -47.4375 2.3125 C-46.34542236 2.13662354 -45.25334473 1.96074707 -44.12817383 1.77954102 C-29.4887632 -0.28894139 -14.75310859 -0.04052609 0 0 Z " fill="#000000" transform="translate(4880.4375,-0.3125)"/>
<path d="M0 0 C35.64 0 71.28 0 108 0 C108.01458252 9.46896973 108.02916504 18.93793945 108.04418945 28.69384766 C108.09298749 59.02009669 108.15640786 89.34629946 108.22898628 119.67250053 C108.24025392 124.38615894 108.25139245 129.09981765 108.26245117 133.81347656 C108.26465486 134.75184787 108.26685854 135.69021918 108.269129 136.65702598 C108.30446368 151.83419685 108.32934941 167.01136767 108.35034702 182.18856438 C108.3721396 197.77153581 108.40522279 213.35445404 108.44870156 228.93738019 C108.47515877 238.54634179 108.49289778 248.15523714 108.49934604 257.76423334 C108.50461811 264.36101983 108.52089587 270.95772311 108.54566566 277.55446495 C108.55961857 281.35564002 108.56887488 285.15666633 108.56500816 288.95786858 C108.56093124 293.09134189 108.58011065 297.22439745 108.60127258 301.3578186 C108.59642501 302.54268754 108.59157743 303.72755647 108.58658296 304.94833052 C108.71253464 319.93412867 111.67830661 334.68693579 122.25 345.875 C133.88127491 356.57886429 148.53092621 361.14973526 164 363 C164.85464844 363.11085938 165.70929688 363.22171875 166.58984375 363.3359375 C191.44374416 366.10163469 219.39221778 363.89147153 240.44140625 349.30859375 C250.23975293 341.29514514 254.88255591 330.28071603 257 318 C257.09127236 316.14114439 257.1335342 314.27952499 257.1386652 312.418437 C257.14413964 311.30076197 257.14961409 310.18308693 257.15525442 309.03154296 C257.15623253 307.80878561 257.15721064 306.58602826 257.15821838 305.32621765 C257.16562535 303.37195499 257.16562535 303.37195499 257.17318195 301.37821227 C257.18674908 297.7638117 257.19417729 294.14942052 257.20060861 290.53500116 C257.20861881 286.63660926 257.22231446 282.73823686 257.23532104 278.83985901 C257.25707498 272.08626097 257.27522344 265.33266096 257.29092598 258.57904625 C257.31363445 248.81444234 257.34177594 239.04986005 257.37124526 229.28527448 C257.41890917 213.44304084 257.46217662 197.60079836 257.50268555 181.75854492 C257.54204658 166.36888949 257.58347427 150.97924191 257.62768555 135.58959961 C257.63177196 134.16677314 257.63177196 134.16677314 257.63594092 132.71520271 C257.6496205 127.95662113 257.66334075 123.19803966 257.67708123 118.43945825 C257.79102715 78.95965424 257.89703187 39.47983447 258 0 C293.64 0 329.28 0 366 0 C366.04416501 40.77381389 366.08106475 81.54760506 366.10213066 122.32143606 C366.1046318 127.14495481 366.10722047 131.96847351 366.10986328 136.79199219 C366.11065021 138.2322888 366.11065021 138.2322888 366.11145304 139.70168231 C366.12013442 155.20972457 366.13589179 170.71775186 366.15430559 186.22578527 C366.17306794 202.16132544 366.18413006 218.09685783 366.18817699 234.0324086 C366.19090896 243.85017922 366.19950931 253.66790754 366.21583293 263.48566513 C366.22647818 270.23571878 366.22958374 276.98575084 366.22700275 283.73581226 C366.22573308 287.61897761 366.22755409 291.5020695 366.23841095 295.38522148 C366.29336509 316.07603196 366.2782431 336.87741858 361.8125 357.1875 C361.59964355 358.17596924 361.38678711 359.16443848 361.16748047 360.18286133 C354.71874804 388.67965866 340.10600088 415.12572124 315.1875 431.34545898 C256.35083687 467.81743741 172.62079679 468.93020573 106.85449219 453.69140625 C92.55416486 450.22762529 79.22575152 445.43856856 66 439 C65.00444092 438.52457764 65.00444092 438.52457764 63.98876953 438.03955078 C39.14349356 426.0609111 20.7200087 405.90250968 11 380 C0.19595203 348.3862784 -0.16387974 316.23555562 -0.11606562 283.18520916 C-0.11168194 279.3716368 -0.11321306 275.55806575 -0.1139679 271.74449158 C-0.11448819 265.16250382 -0.11139356 258.58052611 -0.10573006 251.99854088 C-0.09754733 242.48250024 -0.09499295 232.96646437 -0.09374207 223.4504206 C-0.0915621 208.0052744 -0.08493084 192.56013354 -0.07543945 177.11499023 C-0.06623789 162.12573269 -0.05917053 147.1364766 -0.05493164 132.1472168 C-0.05466892 131.22079137 -0.05440619 130.29436594 -0.05413551 129.33986702 C-0.05283032 124.69152012 -0.05156665 120.04317321 -0.05032361 115.39482629 C-0.0399839 76.92987946 -0.02156348 38.4649425 0 0 Z " fill="#000000" transform="translate(5120,4)"/>
<path d="M0 0 C35.64 0 71.28 0 108 0 C108.01458252 9.60585205 108.02916504 19.2117041 108.04418945 29.10864258 C108.09296566 59.85726796 108.15637999 90.60584761 108.22898628 121.3544256 C108.2402542 126.13203542 108.25139269 130.90964554 108.26245117 135.68725586 C108.26465486 136.63837656 108.26685854 137.58949725 108.269129 138.56943979 C108.30448409 153.96203283 108.32935832 169.35462583 108.35034702 184.7472444 C108.37212331 200.54603334 108.40519112 216.34476968 108.44870156 232.14351386 C108.47518675 241.88914118 108.49290519 251.63470298 108.49934604 261.3803645 C108.5046095 268.06683461 108.52085865 274.75322232 108.54566566 281.43964825 C108.55964783 285.29513344 108.56886378 289.15047124 108.56500816 293.00598335 C108.5609481 297.19305375 108.58006124 301.3797081 108.60127258 305.56672668 C108.59642501 306.77589794 108.59157743 307.98506919 108.58658296 309.23088199 C108.70437843 323.34540977 112.68817344 336.39498213 122.515625 346.83203125 C141.37591165 363.29030026 169.32410932 365.32418951 193.22998047 363.86376953 C212.87151363 362.36981107 232.23435531 358.16679066 246 343 C255.9955183 329.88088223 257.14512859 314.96851934 257.15821838 299.07298279 C257.16562535 297.15034555 257.16562535 297.15034555 257.17318195 295.18886715 C257.18667884 291.65191343 257.19415672 288.11496924 257.20060861 284.57799661 C257.20864997 280.75602192 257.22233475 276.93406683 257.23532104 273.11210632 C257.25703104 266.49717769 257.27519542 259.88224701 257.29092598 253.26730156 C257.31367467 243.70329607 257.34181046 234.13931235 257.37124526 224.57532538 C257.41886002 209.0569811 257.4621407 193.53862791 257.50268555 178.02026367 C257.54207164 162.94896755 257.5835053 147.87767935 257.62768555 132.80639648 C257.63177196 131.41202932 257.63177196 131.41202932 257.63594092 129.98949312 C257.64962091 125.3258985 257.66334108 120.662304 257.67708123 115.99870956 C257.79094989 77.33248859 257.8969801 38.66625169 258 0 C293.31 0 328.62 0 365 0 C365.06625978 41.63153123 365.12160461 83.26301233 365.15319599 124.89458129 C365.15694766 129.82067147 365.16083067 134.74676154 365.16479492 139.67285156 C365.16558185 140.65345899 365.16636878 141.63406641 365.16717956 142.64438921 C365.18019813 158.4776495 365.2038322 174.31087677 365.23145839 190.14411753 C365.25961175 206.41640994 365.27619714 222.68868517 365.28226548 238.96100092 C365.28636143 248.98454141 365.29925072 259.00798856 365.3237494 269.03150028 C365.3397295 275.92500967 365.34437292 282.81847152 365.34050413 289.71199805 C365.33860146 293.67645674 365.34130896 297.6407535 365.35761642 301.60518265 C365.44192027 323.17270729 365.15113399 344.94011495 359.3125 365.875 C359.05976318 366.80860352 358.80702637 367.74220703 358.54663086 368.70410156 C350.2376179 398.0241533 332.73379074 421.09084985 306.11669922 436.05908203 C268.73876508 456.47060088 225.93104573 461.22717101 184 461.25 C182.3301001 461.25101212 182.3301001 461.25101212 180.62646484 461.25204468 C163.22029984 461.23530798 146.22653302 460.68614412 129 458 C127.92073242 457.83902832 126.84146484 457.67805664 125.72949219 457.51220703 C98.59647032 453.33264566 70.64782968 444.99319142 48 429 C47.2471875 428.47019531 46.494375 427.94039063 45.71875 427.39453125 C22.14402396 409.92101072 9.59081317 384.23632283 3.75 356.0625 C3.52316528 354.97521606 3.52316528 354.97521606 3.29174805 353.8659668 C-0.29038873 335.0734017 -0.28450813 316.20043291 -0.23213124 297.14919555 C-0.22338812 293.15017429 -0.22642447 289.15115827 -0.22793579 285.15213013 C-0.22897787 278.24542488 -0.22277275 271.3387578 -0.21146011 264.43206215 C-0.19511528 254.44649162 -0.18998798 244.4609393 -0.18748413 234.47535684 C-0.18312102 218.26928671 -0.16984974 202.06323687 -0.15087891 185.85717773 C-0.1324841 170.12671001 -0.11834528 154.39624781 -0.10986328 138.66577148 C-0.10907511 137.20813777 -0.10907511 137.20813777 -0.10827102 135.72105692 C-0.1056607 130.8454077 -0.10313334 125.96975845 -0.10064721 121.09410918 C-0.07995787 80.7293881 -0.04311158 40.36470458 0 0 Z " fill="#000000" transform="translate(2324,4)"/>
<path d="M0 0 C44.55 0 89.1 0 135 0 C146.7358371 38.21481957 158.45484839 76.43363771 170.0625 114.6875 C172.07399691 121.31647359 174.08555284 127.94542922 176.09765625 134.57421875 C176.34494099 135.38889429 176.59222572 136.20356983 176.84700394 137.04293251 C182.20803772 154.70241794 187.60149962 172.35193903 193 190 C200.95078381 215.99241833 208.86558126 241.9955893 216.76037598 268.00506592 C223.70199415 290.87383515 230.66150332 313.7369888 237.65155029 336.59100342 C245.4176746 361.98261318 253.17701445 387.37632078 260.90955734 412.77817917 C262.27261848 417.25586703 263.63657722 421.73327619 265.00292969 426.20996094 C266.27618579 430.38179699 267.54680918 434.55442548 268.81535721 438.72769547 C269.28417303 440.26838328 269.75394479 441.80878057 270.22471237 443.34887314 C270.86771433 445.45300071 271.50729671 447.55813734 272.14599609 449.66357422 C272.68599747 451.43630203 272.68599747 451.43630203 273.23690796 453.24484253 C274 456 274 456 274 458 C237.04 458 200.08 458 162 458 C158.205 444.67625 154.41 431.3525 150.5 417.625 C149.29923828 413.41443848 148.09847656 409.20387695 146.86132812 404.86572266 C145.40136719 399.7331543 145.40136719 399.7331543 144.71911621 397.3321228 C144.24091586 395.65110217 143.76167287 393.97037793 143.28161621 392.28988647 C142.55574756 389.74814366 141.83316653 387.20548749 141.11132812 384.66259766 C140.89585579 383.91095652 140.68038345 383.15931538 140.45838165 382.38489723 C139 377.22805267 139 377.22805267 139 375 C91.15 375 43.3 375 -6 375 C-6.33 377.31 -6.66 379.62 -7 382 C-7.60549282 384.49255564 -8.25310512 386.97510847 -8.93359375 389.44824219 C-9.1272049 390.15645615 -9.32081604 390.8646701 -9.52029419 391.59434509 C-10.15527543 393.91299917 -10.79630124 396.22993337 -11.4375 398.546875 C-11.88243001 400.16626539 -12.32700457 401.78575347 -12.77124023 403.40533447 C-13.93753033 407.65322331 -15.10908093 411.89964445 -16.28161621 416.14581299 C-17.23923429 419.61723954 -18.19303647 423.089709 -19.14665222 426.56223679 C-20.28395696 430.70331038 -21.42300169 434.84390454 -22.5625 438.984375 C-22.88841629 440.1689542 -22.88841629 440.1689542 -23.22091675 441.37746429 C-23.83514401 443.60834758 -24.45055582 445.83890026 -25.06640625 448.06933594 C-25.5914978 449.97292877 -25.5914978 449.97292877 -26.12719727 451.91497803 C-26.70493509 453.95705903 -27.32889078 455.98667234 -28 458 C-64.63 458 -101.26 458 -139 458 C-137.81322646 452.65951907 -136.67854405 447.64272465 -135.08666992 442.46386719 C-134.71330505 441.24299911 -134.33994019 440.02213104 -133.95526123 438.76426697 C-133.54704573 437.44178796 -133.13877996 436.11932446 -132.73046875 434.796875 C-132.29771607 433.38600772 -131.86529079 431.97503998 -131.4331665 430.5639801 C-130.5071018 427.5421847 -129.57895478 424.52104012 -128.6491394 421.50039673 C-127.16300109 416.67217249 -125.68173439 411.8424625 -124.20141602 407.01245117 C-123.6939005 405.35667203 -123.18637788 403.70089506 -122.67884827 402.04512024 C-122.42576464 401.21944361 -122.17268101 400.39376698 -121.91192818 399.54306984 C-121.13596429 397.01214211 -120.35954374 394.48135489 -119.58299255 391.9506073 C-114.7256953 376.1192692 -109.900272 360.2783138 -105.08287811 344.43479538 C-103.99782805 340.8666596 -102.91222452 337.29869223 -101.82666016 333.73071289 C-99.21726492 325.15396324 -96.6085779 316.57699826 -94 308 C-90.5213879 296.56233125 -87.04237349 285.12478504 -83.5625 273.6875 C-83.34628494 272.97683254 -83.13006989 272.26616508 -82.90730286 271.53396225 C-77.82544219 254.83089155 -72.73728477 238.12976962 -67.6328125 221.43359375 C-67.40960516 220.70350538 -67.18639782 219.97341702 -66.95642662 219.22120476 C-65.13876801 213.27606395 -63.3208188 207.33101201 -61.50279617 201.38598251 C-53.97398458 176.76575952 -46.47818971 152.13564322 -39 127.5 C-31.1979374 101.7981488 -23.37925746 76.10145929 -15.53082275 50.41372681 C-14.8222411 48.09438475 -14.11385587 45.77498279 -13.40551758 43.45556641 C-12.29616783 39.82327803 -11.18621754 36.19117369 -10.07578087 32.55921745 C-9.48625607 30.63075683 -8.89714703 28.70216913 -8.30805969 26.77357483 C-5.57428669 17.83736857 -2.78752533 8.92008107 0 0 Z M66 95 C65.7267691 96.07230865 65.45353821 97.14461731 65.17202759 98.24942017 C41.81880797 189.89679617 41.81880797 189.89679617 31.19536591 231.2186203 C30.62783541 233.42646949 30.06061636 235.63439849 29.49346924 237.84234619 C28.44730262 241.9147214 27.39959437 245.98669816 26.3515625 250.05859375 C26.05266113 251.22195755 25.75375977 252.38532135 25.44580078 253.5839386 C23.88692056 259.63274663 22.2747178 265.65750044 20.53842163 271.65809631 C19.85062518 274.2492165 19.85062518 274.2492165 20 278 C51.02 278 82.04 278 114 278 C110.87473526 263.78723172 110.87473526 263.78723172 107.41308594 249.66894531 C107.18431511 248.77967189 106.95554428 247.89039846 106.719841 246.97417736 C105.97749901 244.09142586 105.23097259 241.20977698 104.484375 238.328125 C103.94999051 236.25617715 103.41587874 234.18415894 102.88201904 232.11207581 C101.46624698 226.62014136 100.04682523 221.1291572 98.62637329 215.63843155 C97.1575832 209.95946489 95.69119301 204.27987859 94.22460938 198.6003418 C92.46766752 191.79664679 90.71050408 184.99300973 88.9519043 178.18974304 C85.74450375 165.77867876 82.55244672 153.36388813 79.38669586 140.94213486 C78.26914247 136.55918293 77.14821815 132.17709166 76.02740097 127.79497337 C75.18291526 124.49162014 74.34100129 121.18765304 73.50476074 117.88220215 C72.60302724 114.32222028 71.6931557 110.76441846 70.78125 107.20703125 C70.52414246 106.18186905 70.26703491 105.15670685 70.00213623 104.10047913 C69.76488831 103.18149338 69.52764038 102.26250763 69.28320312 101.31567383 C69.08182739 100.5233284 68.88045166 99.73098297 68.67297363 98.91462708 C68.08285448 96.79444166 68.08285448 96.79444166 66 95 Z " fill="#000000" transform="translate(3958,4)"/>
<path d="M0 0 C0.75472595 0.00060425 1.5094519 0.0012085 2.28704834 0.00183105 C35.37734651 0.07280128 68.09843973 3.5862476 100.6875 9.125 C101.37074341 9.24025024 102.05398682 9.35550049 102.75793457 9.47424316 C115.46332349 11.63628979 127.95007584 14.44566866 140.5625 17.1875 C140.5625 45.2375 140.5625 73.2875 140.5625 102.1875 C132.14508498 102.1875 123.8869925 102.07967642 115.5078125 101.56640625 C113.85264114 101.47008156 113.85264114 101.47008156 112.16403198 101.37181091 C108.6716354 101.16808496 105.17956072 100.95939747 101.6875 100.75 C76.59955857 99.26122222 51.60205023 97.98712912 26.46313477 97.94726562 C22.73627174 97.93746389 19.00994022 97.90624942 15.28320312 97.875 C-14.81415066 97.55844398 -14.81415066 97.55844398 -41.4375 110.1875 C-50.81373861 120.32772842 -51.71770846 132.31642203 -51.58984375 145.5859375 C-51.17083468 155.49174164 -49.71312715 164.2185279 -43.125 171.875 C-33.88471128 179.82594611 -24.85651058 183.24386989 -12.52172852 183.36108398 C-11.37515274 183.37457382 -10.22857697 183.38806366 -9.04725647 183.40196228 C-7.8160759 183.41240067 -6.58489532 183.42283905 -5.31640625 183.43359375 C-3.34186271 183.45812449 -1.36731925 183.48266641 0.60721684 183.50779057 C5.43638557 183.56785474 10.26564902 183.61834339 15.0949707 183.66430664 C28.52916532 183.79564509 41.94532937 183.94075062 55.33984375 185.078125 C56.22208115 185.15183823 57.10431854 185.22555145 58.01329041 185.30149841 C81.78796294 187.56979778 106.70759099 195.88038496 124.5625 212.1875 C125.06491211 212.6422168 125.56732422 213.09693359 126.08496094 213.56542969 C149.78043372 235.26849035 160.91722159 264.49494592 162.73754883 296.24023438 C163.01013495 303.78475319 162.99154267 311.32683551 162.9375 318.875 C162.93101944 320.59021851 162.93101944 320.59021851 162.92440796 322.34008789 C162.8516692 338.74719829 162.68489751 355.02414273 159.5625 371.1875 C159.39089355 372.08114258 159.21928711 372.97478516 159.04248047 373.89550781 C153.20594471 402.80174659 138.49820128 427.4830161 113.73046875 444.0859375 C94.31755495 455.98836657 72.007896 460.6207677 49.6875 463.5 C48.45386719 463.65936035 47.22023438 463.8187207 45.94921875 463.98291016 C29.87680305 465.91117484 13.79860426 466.39642409 -2.375 466.375 C-3.66150452 466.37409363 -3.66150452 466.37409363 -4.97399902 466.37316895 C-130.48853111 466.13646889 -130.48853111 466.13646889 -147.4375 449.1875 C-147.53261266 446.54011911 -147.56305635 443.91890999 -147.55102539 441.27124023 C-147.55117142 440.44204071 -147.55131744 439.61284119 -147.5514679 438.7585144 C-147.55076851 436.00434802 -147.54297493 433.25024839 -147.53515625 430.49609375 C-147.53329216 428.59180234 -147.53186822 426.68751045 -147.53086853 424.78321838 C-147.52704263 419.76082037 -147.51721173 414.73845108 -147.50616455 409.71606445 C-147.49595198 404.5952188 -147.49137124 399.47436852 -147.48632812 394.35351562 C-147.47558953 384.29816443 -147.45851224 374.2428346 -147.4375 364.1875 C-140.69694845 364.10714035 -134.03494698 364.32744962 -127.3125 364.80859375 C-125.3671876 364.94075669 -123.4218751 365.07291809 -121.4765625 365.20507812 C-118.4852754 365.41241661 -115.49408147 365.62104118 -112.50292969 365.83032227 C-85.3945403 367.71574841 -58.36109837 368.39821899 -31.19458008 368.42773438 C-26.84981582 368.43325751 -22.5053587 368.45744936 -18.16069126 368.48570633 C-14.73977344 368.5045403 -11.3189278 368.50954864 -7.89796257 368.51107025 C-6.29760958 368.5140375 -4.6972559 368.52185588 -3.09695625 368.53525543 C15.4983784 368.68021169 38.35616944 367.83120361 52.5625 354.1875 C59.48048109 346.14768414 59.84600956 336.26349576 59.9375 326.125 C59.95828613 324.74248047 59.95828613 324.74248047 59.97949219 323.33203125 C59.91594368 313.94023018 57.83733029 304.46379947 51.5625 297.1875 C39.59321219 286.73511204 24.26479006 287.06864351 9.234375 286.9765625 C6.6328065 286.94846687 4.03124409 286.91980227 1.4296875 286.890625 C-2.61096868 286.84862817 -6.65158771 286.8117059 -10.69238281 286.78613281 C-51.90154141 286.49228831 -92.74835014 281.0684963 -124.1875 251.875 C-151.30071019 223.08813486 -154.673626 182.15720826 -154.625 144.625 C-154.62406342 143.69241364 -154.62312683 142.75982727 -154.62216187 141.79898071 C-154.53688211 102.66733489 -148.65839402 66.33837665 -120.625 36.9375 C-88.98521702 6.52596946 -42.00258087 -0.06297763 0 0 Z " fill="#000000" transform="translate(1342.4375,-0.1875)"/>
<path d="M0 0 C0.68315277 0.11525024 1.36630554 0.23050049 2.07015991 0.34924316 C14.77565379 2.51127493 27.26246619 5.32064482 39.875 8.0625 C39.875 36.1125 39.875 64.1625 39.875 93.0625 C31.84092999 93.0625 23.95303837 92.93047377 15.953125 92.44140625 C14.29938873 92.34508156 14.29938873 92.34508156 12.61224365 92.24681091 C9.11629376 92.04281832 5.62063631 91.83429195 2.125 91.625 C-23.37796296 90.10924086 -48.80039401 88.8628576 -74.35473633 88.82226562 C-78.08371352 88.81244413 -81.8121638 88.78121398 -85.54101562 88.75 C-115.20519505 88.53076588 -115.20519505 88.53076588 -141.703125 100.63671875 C-149.58651649 108.54176791 -151.47330295 119.54380499 -151.59350586 130.31079102 C-151.58327393 131.36322998 -151.57304199 132.41566895 -151.5625 133.5 C-151.55005249 135.14923462 -151.55005249 135.14923462 -151.53735352 136.83178711 C-151.31671059 147.39830625 -149.97201316 156.4148255 -142.3046875 164.3125 C-131.31512639 173.13566017 -119.04015479 174.34848038 -105.4921875 174.40625 C-103.49025826 174.42861569 -101.48832909 174.45099212 -99.48640633 174.47393036 C-95.99100052 174.51138377 -92.49550641 174.53647459 -89 174.5625 C-57.85376103 174.79744521 -57.85376103 174.79744521 -44.3203125 175.953125 C-43.43818085 176.02760864 -42.55604919 176.10209229 -41.64718628 176.17883301 C-11.20960405 179.1060657 16.25596518 191.92449196 36.46484375 214.9921875 C57.82234645 242.19963827 62.4293322 273.01775829 62.26611328 306.6105957 C62.24907134 310.15359473 62.25914874 313.69591514 62.27643585 317.23889065 C62.43913905 356.54731743 57.00463409 392.83963649 28.875 422.0625 C28.29105469 422.72121094 27.70710938 423.37992187 27.10546875 424.05859375 C2.78705318 450.71650246 -42.71691761 455.06479621 -76.26953125 456.78515625 C-132.29801689 459.03896887 -191.90050455 456.20575329 -246.125 441.0625 C-247.9022169 439.2852831 -247.24488099 436.910028 -247.24942017 434.54386902 C-247.24582489 433.75265152 -247.24222961 432.96143402 -247.23852539 432.14624023 C-247.23867142 431.31704071 -247.23881744 430.48784119 -247.2389679 429.6335144 C-247.23826851 426.87934802 -247.23047493 424.12524839 -247.22265625 421.37109375 C-247.22079216 419.46680234 -247.21936822 417.56251045 -247.21836853 415.65821838 C-247.21454263 410.63582037 -247.20471173 405.61345108 -247.19366455 400.59106445 C-247.18345198 395.4702188 -247.17887124 390.34936852 -247.17382812 385.22851562 C-247.16308953 375.17316443 -247.14601224 365.1178346 -247.125 355.0625 C-226.15735524 355.97029766 -226.15735524 355.97029766 -216.453125 356.5625 C-215.77842163 356.60366943 -215.10371826 356.64483887 -214.40856934 356.68725586 C-211.07945313 356.89229057 -207.75064995 357.10198459 -204.421875 357.3125 C-180.05640092 358.82217343 -155.71516656 359.27592406 -131.30932617 359.30273438 C-127.88213657 359.30715297 -124.45519394 359.32121384 -121.02807617 359.34375 C-81.84615825 361.2080338 -81.84615825 361.2080338 -47.8984375 345.18359375 C-40.83475882 336.73518511 -40.89396303 328.02769427 -40.8125 317.4375 C-40.78349609 316.20386719 -40.75449219 314.97023438 -40.72460938 313.69921875 C-40.65680105 303.88265934 -42.22423664 295.02380725 -49.1875 287.66015625 C-61.04140757 277.88546231 -76.15868193 277.78074789 -90.80859375 277.75390625 C-93.39258022 277.72872999 -95.97656454 277.70333222 -98.56054688 277.67773438 C-102.54843114 277.64919897 -106.53622848 277.62512466 -110.52416992 277.60620117 C-152.64478777 277.36837923 -193.00449027 271.90910061 -224.6875 241.9375 C-251.05195461 214.83038469 -254.69449376 175.25137917 -254.51611328 139.34887695 C-254.50000463 135.5011052 -254.51607048 131.65438118 -254.53515625 127.80664062 C-254.56615003 90.65329174 -247.78417281 55.6770049 -221.125 28.0625 C-165.9838489 -25.37005205 -68.28218728 -11.61036154 0 0 Z " fill="#000000" transform="translate(2998.125,8.9375)"/>
<path d="M0 0 C35.31 0 70.62 0 107 0 C107.01458252 9.92336426 107.02916504 19.84672852 107.04418945 30.07080078 C107.09298305 61.84897537 107.1564022 93.62710578 107.22898628 125.40523458 C107.24025398 130.34421213 107.2513925 135.28318995 107.26245117 140.22216797 C107.26465486 141.2053985 107.26685854 142.18862903 107.269129 143.20165442 C107.30446783 159.10630991 107.32935122 175.01096535 107.35034702 190.9156455 C107.37213629 207.24442363 107.40521636 223.57315096 107.44870156 239.90188587 C107.47516444 249.97148897 107.49289929 260.04102882 107.49934604 270.11066495 C107.50461636 277.02282128 107.52088833 283.93489813 107.54566566 290.84701182 C107.55962449 294.83045906 107.56887261 298.8137642 107.56500816 302.7972374 C107.56156912 306.4532934 107.57212625 310.10904723 107.59323552 313.76504146 C107.60090276 315.69525828 107.5941092 317.62551642 107.58658296 319.5557338 C107.68085631 331.29332322 108.56661845 344.07277178 117 353 C127.53377934 361.69250897 141.00876993 361.14801503 153.94335938 361.20532227 C155.34353922 361.21491613 156.74371625 361.22492706 158.14389038 361.23532104 C161.92426976 361.26221296 165.70466143 361.28330695 169.48508263 361.30332303 C173.44356871 361.32528024 177.40201762 361.35262103 181.36047363 361.37937927 C188.84712229 361.42917515 196.33379174 361.47416226 203.82048082 361.51740164 C213.94378607 361.57614854 224.06704232 361.64236452 234.1903038 361.70815182 C250.12683613 361.81152135 266.06341088 361.90494674 282 362 C282 393.68 282 425.36 282 458 C236.49339625 458.1209091 236.49339625 458.1209091 217.3125 458.14648438 C204.10836257 458.16423262 190.90428288 458.18501039 177.70019531 458.22631836 C168.08047758 458.25639833 158.46080705 458.27561674 148.84104359 458.28226548 C143.75640521 458.28614652 138.67190174 458.29514454 133.58730698 458.31719017 C94.55527286 458.47969586 55.37359103 458.14037085 25.25 429.6875 C4.98285463 408.55331098 -0.18091926 377.22020497 -0.12025452 349.09886169 C-0.12069108 347.58966668 -0.12156754 346.08047174 -0.12284368 344.5712772 C-0.12507199 340.44142871 -0.12109019 336.31160632 -0.11606562 332.18176115 C-0.11173736 327.72175498 -0.11320923 323.26175023 -0.1139679 318.80174255 C-0.11449162 311.08019603 -0.11136059 303.35865797 -0.10573006 295.63711357 C-0.09759462 284.47312836 -0.09499774 273.30914723 -0.09374207 262.14515937 C-0.09155476 244.03125953 -0.08490338 225.91736419 -0.07543945 207.8034668 C-0.06625702 190.21004255 -0.05918025 172.61661952 -0.05493164 155.02319336 C-0.05466892 153.93829148 -0.05440619 152.8533896 -0.05413551 151.73561191 C-0.05283045 146.29284569 -0.05156675 140.85007946 -0.05032361 135.40731323 C-0.039961 90.27153815 -0.02152808 45.13577141 0 0 Z " fill="#000000" transform="translate(2000,4)"/>
<path d="M0 0 C35.64 0 71.28 0 108 0 C108 151.14 108 302.28 108 458 C72.36 458 36.72 458 0 458 C0 306.86 0 155.72 0 0 Z " fill="#000000" transform="translate(3121,4)"/>
</svg>
