<svg xmlns="http://www.w3.org/2000/svg" width="256" height="256"><path fill="#1976D2" fill-opacity=".016" fill-rule="evenodd" d="M0 128.004v128.004l128.25-.254 128.25-.254.254-127.75L257.008 0H0zm.485.496c0 70.4.119 99.053.265 63.672s.146-92.98 0-128S.485 58.1.485 128.5"/><path fill="#1976D2" fill-opacity=".199" fill-rule="evenodd" d="M109.979 26.25c-.012.688-1.736 2.462-3.832 3.944-3.461 2.447-22.782 17.551-27.661 21.625-1.108.924-3.653 2.785-5.655 4.135-6.425 4.331-6.831 5.818-6.831 25 0 13.413.332 17.788 1.526 20.096.839 1.622 1.856 2.95 2.26 2.95s1.855 1.031 3.224 2.292 7.44 6.088 13.49 10.729 11.649 9.063 12.443 9.829c.793.766 4.658 3.813 8.589 6.771 7.851 5.91 12.518 7.023 14.433 3.445.677-1.266 1.035-20.954 1.035-57V25h-6.5c-4.522 0-6.506.38-6.521 1.25m25.688-.583c-.367.366-.667 25.326-.667 55.464 0 54.461.013 54.805 2.078 55.911 2.684 1.436 6.592-.366 13.513-6.229 2.8-2.372 8.582-7.013 12.849-10.313 4.268-3.3 8.727-6.83 9.909-7.845s4.964-3.913 8.401-6.442l6.25-4.599V61.167l-9.25-7.386c-5.088-4.061-12.175-9.595-15.75-12.295-9.214-6.961-18.442-14.618-18.833-15.627-.391-1.007-7.524-1.169-8.5-.192M16.124 101.044C8.217 107.07 1.354 112 .874 112S0 122.575 0 135.5c0 14.028.38 23.5.942 23.5.896 0 18.392 13.861 62.415 49.448 10.921 8.829 20.821 16.608 22 17.287 1.401.808 6.72 1.241 15.362 1.25 11.335.013 13.136.229 12.643 1.515-.45 1.171.258 1.5 3.231 1.5 3.006 0 3.549-.258 2.581-1.226s-.747-1.587 1.05-2.942c2.259-1.702 2.278-1.928 2.581-29.524.168-15.294.034-29.277-.298-31.073-.736-3.983-3.493-6.874-14.507-15.211-4.675-3.539-8.95-6.948-9.5-7.574-.55-.627-3.925-3.334-7.5-6.015s-7.85-6.123-9.5-7.65-3.562-2.778-4.25-2.78c-.687-.003-1.25-.368-1.25-.812s-2.812-2.876-6.25-5.406c-3.437-2.529-7.375-5.593-8.75-6.809s-5.875-4.851-10-8.079c-4.125-3.227-9.975-7.88-13-10.339s-5.95-4.471-6.5-4.472c-.55 0-7.469 4.93-15.376 10.956m204.563-6.635c-2.441 1.863-5.507 4.307-6.812 5.43-2.394 2.058-7.769 6.28-23.049 18.104-4.579 3.543-8.551 6.704-8.826 7.024-.275.319-3.65 3.034-7.5 6.033s-7.225 5.71-7.5 6.024-2.075 1.661-4 2.991-4.088 2.99-4.806 3.687c-.719.697-4.094 3.4-7.5 6.006-3.407 2.606-7.314 5.763-8.684 7.015-1.369 1.253-2.82 2.277-3.224 2.277s-1.421 1.328-2.26 2.95c-2.128 4.114-2.278 58.639-.17 61.522 1.218 1.665 2.985 1.864 17.279 1.942l15.922.086 4.471-3.474c2.46-1.911 4.697-3.736 4.972-4.056s6.35-5.217 13.5-10.883 14.8-11.764 17-13.551c4.838-3.932 20.603-16.659 22-17.761 7.486-5.908 15.938-12.732 19.75-15.947l4.75-4.006v-40.441l-5.25-4.496c-2.887-2.474-9.834-7.955-15.438-12.18l-10.187-7.683z"/><path fill="#1976D2" fill-opacity=".428" fill-rule="evenodd" d="M112 26.5c0 .825-.363 1.5-.807 1.5s-2.132 1.083-3.75 2.407C101.56 35.218 88.294 45.662 79.5 52.405c-4.95 3.796-9.562 7.594-10.25 8.439C68.35 61.952 68 67.593 68 81c0 13.432.348 19.033 1.25 20.11 1.375 1.642 6.68 6.008 19.304 15.89 28.274 22.132 28.332 22.17 30.916 20.025 1.339-1.111 1.53-8.004 1.53-55.066 0-29.587-.273-54.507-.607-55.377-.831-2.165-8.393-2.238-8.393-.082m-96.69 76.75L.171 114.5l-.085 21.25C.03 149.428.359 157 1.009 157c.554 0 2.242 1.08 3.75 2.401C13.88 167.39 85.939 224.34 88 225.189c3.52 1.451 31.131.205 32.183-1.452.941-1.48 1.096-55.092.174-59.704-.495-2.474-2.402-4.602-8.25-9.207-4.184-3.295-9.182-7.269-11.107-8.831-1.925-1.563-6.287-5.014-9.694-7.668C69.321 121.196 63.444 116.562 63 116.009c-.275-.343-4.247-3.523-8.826-7.066a3735 3735 0 0 1-15-11.676c-3.671-2.877-7.135-5.24-7.699-5.25s-7.838 5.046-16.165 11.233"/><path fill="#1976D2" fill-opacity=".252" fill-rule="evenodd" d="M114 26.474c0 .811-1.277 2.135-2.838 2.942s-4.373 2.817-6.25 4.466c-3.548 3.118-9.969 8.185-25.662 20.25-5.088 3.911-9.279 7.619-9.315 8.24-.059 1.033-.027 33.826.037 37.878.015.963.591 1.752 1.278 1.755s2.6 1.253 4.25 2.78 5.925 4.969 9.5 7.65 6.95 5.388 7.5 6.015 4.825 4.024 9.5 7.55 8.95 6.97 9.5 7.653c.55.684 2.35 1.379 4 1.545l3 .302.258-55.25.259-55.25h-2.509c-1.543 0-2.508.567-2.508 1.474M27.429 95.797c-2.154 1.487-4.531 3.283-5.283 3.993-.752.709-5.03 4.066-9.507 7.46s-8.734 6.751-9.46 7.46c-.727.71-1.74 1.29-2.25 1.29C.388 116 0 124.359 0 136c0 19.333.067 20 2 20 1.1 0 2 .374 2 .83 0 .457 2.124 2.356 4.72 4.221 2.597 1.864 5.467 4.136 6.38 5.049.912.912 4.174 3.517 7.249 5.788s6.391 4.954 7.37 5.962c.98 1.007 4.3 3.667 7.378 5.91 3.079 2.242 6.229 4.691 7 5.44.772.749 4.19 3.493 7.597 6.096s6.836 5.377 7.621 6.162 4.523 3.763 8.306 6.617 7.104 5.489 7.379 5.855c.275.365 3.278 2.78 6.674 5.367L87.848 224H119v-61.935l-16.17-12.783c-8.894-7.03-21.831-17.284-28.75-22.786s-15.367-12.146-18.774-14.765-6.781-5.322-7.5-6.007c-1.55-1.479-13.833-11.043-15.384-11.979-.593-.358-2.84.566-4.993 2.052"/></svg>